<svg width="56" height="56" viewBox="0 0 56 56" fill="none" xmlns="http://www.w3.org/2000/svg">
<path d="M28 2C42.3594 2 54 13.6406 54 28C54 42.3594 42.3594 54 28 54C13.6406 54 2 42.3594 2 28C2 13.6406 13.6406 2 28 2Z" fill="#242325" stroke="#E4F1FE" stroke-width="4"/>
<path d="M19.7705 33V25.8975H17.7129V24.4072H18.0684C19.2168 24.4072 19.873 23.9287 19.9961 22.8213H21.6709V33H19.7705ZM23.2637 33V22.8145H25.2324V27.6406L26.7842 25.8154L29.3818 22.8145H31.7744L27.9121 27.2168L31.8633 33H29.5801L26.5996 28.5498L25.2324 30.1221V33H23.2637ZM34.5498 31.4346V28.7412H31.8975V27.1895H34.5498V24.4961H36.1699V27.1895H38.8223V28.7412H36.1699V31.4346H34.5498Z" fill="#F0EFF1"/>
</svg>
