<svg width="104" height="42" viewBox="0 0 104 42" fill="none" xmlns="http://www.w3.org/2000/svg">
<path d="M8.71098 8.25562H32.006C32.8076 8.25562 33.4579 7.59899 33.4579 6.78945V2.39097C33.4579 1.58143 32.8083 0.924805 32.006 0.924805H1.45183C0.650206 0.924805 0 1.58143 0 2.39097V33.2468C0 34.057 0.650206 34.713 1.45183 34.713H22.6236C22.9374 34.713 23.2423 34.8154 23.4931 35.005L31.1366 40.7803C32.0937 41.5034 33.4585 40.8136 33.4585 39.6062V15.6162C33.4585 14.8066 32.8083 14.15 32.0067 14.15H15.187C14.3854 14.15 13.7352 14.8066 13.7352 15.6162V20.0147C13.7352 20.8242 14.3854 21.4808 15.187 21.4808H24.7476C25.5492 21.4808 26.1994 22.1375 26.1994 22.947V25.916C26.1994 26.7255 25.5492 27.3822 24.7476 27.3822H8.71098C7.90935 27.3822 7.25915 26.7255 7.25915 25.916V9.72178C7.25915 8.91224 7.90935 8.25562 8.71098 8.25562Z" fill="#6346FA"/>
<path d="M51.5597 23.2809C50.7519 24.7971 49.1086 25.8103 47.2689 25.8103C44.5796 25.8103 42.3808 23.623 42.3808 20.9354C42.3808 18.2477 44.5796 16.0729 47.2689 16.0729C49.0961 16.0729 50.6994 17.0878 51.5473 18.5501C50.7128 18.9718 50.6461 19.0116 49.7183 19.4722C49.2295 18.6288 48.3274 18.0886 47.2689 18.0886C45.678 18.0886 44.4071 19.3537 44.4071 20.9345C44.4071 22.5153 45.6789 23.7804 47.2689 23.7804C48.3283 23.7804 49.3885 23.2526 49.7725 22.3579H49.5601C49.1362 22.3579 48.1692 22.3703 47.6395 22.3703C47.3889 22.3703 47.2698 22.3703 47.2698 22.3579V20.6189C48.6065 20.6189 50.4746 20.6313 52.1037 20.6313C52.1037 20.908 52.0512 22.6479 51.5606 23.2791L51.5597 23.2809Z" fill="#202038"/>
<path d="M55.5591 23.8998H60.896V25.6397H53.5461V16.2055H60.4472V17.9445H55.5591V20.0654H59.8766V21.8973H55.5591V23.8998Z" fill="#202038"/>
<path d="M68.1312 22.174L70.7797 25.6653H68.237L65.8543 22.2792H64.834V25.6653H62.7419V16.2453H67.0061C69.3906 16.2453 70.3051 17.7332 70.3051 19.2618C70.3051 20.5411 69.6288 21.831 68.0539 22.174H68.133H68.1312ZM64.8322 17.8534V20.6852H66.448C67.4416 20.6852 68.2628 20.4624 68.2628 19.2627C68.2628 18.063 67.4416 17.8534 66.448 17.8534H64.8322Z" fill="#202038"/>
<path d="M72.622 16.2453H75.3238L77.5084 20.3952L79.6547 16.2453H82.3964V25.6529H80.4501V18.9983H80.4234L78.3171 23.2809H76.7156L74.6217 19.0646H74.596V25.6529H72.6229L72.622 16.2453Z" fill="#202038"/>
<path d="M83.7944 25.652L88.0871 16.2576H90.1792L94.4051 25.652H92.3913L91.4643 23.5709H86.6829L85.6892 25.652H83.7944ZM89.1598 18.0232L87.5689 21.6603H90.7089L89.1722 18.0232H89.1598Z" fill="#202038"/>
<path d="M97.4437 19.1575V25.6653H95.6289V16.2187H98.0134L102.238 22.0953V16.2187H104V25.6653H102.238L97.4437 19.1575Z" fill="#202038"/>
<path d="M47.3613 13.8352C44.6596 13.8352 42.4732 11.6612 42.4732 8.97271C42.4732 6.28418 44.6587 4.09782 47.3613 4.09782C50.064 4.09782 52.2619 6.27181 52.2619 8.97271C52.2619 11.6736 50.0507 13.8352 47.3613 13.8352ZM44.4738 8.97271C44.4738 10.5411 45.7847 11.8451 47.3613 11.8451C48.938 11.8451 50.2222 10.5411 50.2222 8.97271C50.2222 7.40433 48.938 6.08792 47.3613 6.08792C45.7847 6.08792 44.4738 7.40521 44.4738 8.97271Z" fill="#202038"/>
<path d="M55.6524 7.22132V13.7291H53.8376V4.28259H56.2221L60.4463 10.1592V4.28259H62.2087V13.7291H60.4463L55.6524 7.22132Z" fill="#202038"/>
<path d="M64.2785 13.6505V4.27022H66.3173V11.9123H71.1654V13.6513L64.2785 13.6505Z" fill="#202038"/>
<path d="M72.7785 4.30912H74.8581V13.7168H72.7785V4.30912Z" fill="#202038"/>
<path d="M78.7882 7.22132V13.7291H76.9733V4.28259H79.3578L83.582 10.1592V4.28259H85.3444V13.7291H83.582L78.7882 7.22132Z" fill="#202038"/>
<path d="M89.4042 11.9636H94.7411V13.7035H87.3912V4.26933H94.2923V6.00835H89.4042V8.12929H93.7217V9.96113H89.4042V11.9636Z" fill="#202038"/>
<path d="M44.7147 34.8864C44.9262 36.1241 46.0389 36.2965 46.8068 36.2965C47.5355 36.2965 48.6482 36.0852 48.6482 35.1233C48.6482 33.1209 43.0189 34.4125 43.0189 30.8938C43.0189 28.9568 44.8462 28.0479 46.5543 28.0479C48.5274 28.0479 50.3431 28.9037 50.3431 31.0786L48.3292 30.7877C48.0785 29.695 47.1116 29.6552 46.4619 29.6552C45.8123 29.6552 45.0319 29.9319 45.0319 30.7223C45.0319 31.4207 45.4816 31.5781 47.8528 32.1448C48.5549 32.3155 50.6612 32.7495 50.6612 34.8846C50.6612 36.6104 49.3103 37.902 46.7277 37.902C44.608 37.902 42.7008 36.8738 42.7008 34.5557L44.7147 34.8846V34.8864Z" fill="#202038"/>
<path d="M60.8889 37.6801H58.028L55.5644 35.0446L54.3326 36.7456V37.681H52.213V28.2601H54.3326V33.5965L58.028 28.2601H60.6107L57.0468 33.5965L60.888 37.6819L60.8889 37.6801Z" fill="#202038"/>
<path d="M66.1582 37.7986C63.4565 37.7986 61.2701 35.6246 61.2701 32.9361C61.2701 30.2476 63.4556 28.0612 66.1582 28.0612C68.8609 28.0612 71.0588 30.2352 71.0588 32.9361C71.0588 35.637 68.8476 37.7986 66.1582 37.7986ZM63.2707 32.9361C63.2707 34.5045 64.5816 35.8085 66.1582 35.8085C67.7349 35.8085 69.0191 34.5045 69.0191 32.9361C69.0191 31.3677 67.7349 30.0513 66.1582 30.0513C64.5816 30.0513 63.2707 31.3686 63.2707 32.9361Z" fill="#202038"/>
<path d="M77.0258 37.7986C74.324 37.7986 72.1377 35.6246 72.1377 32.9361C72.1377 30.2476 74.3231 28.0612 77.0258 28.0612C79.7284 28.0612 81.9263 30.2352 81.9263 32.9361C81.9263 35.637 79.7151 37.7986 77.0258 37.7986ZM74.1383 32.9361C74.1383 34.5045 75.4491 35.8085 77.0258 35.8085C78.6024 35.8085 79.8866 34.5045 79.8866 32.9361C79.8866 31.3677 78.6024 30.0513 77.0258 30.0513C75.4491 30.0513 74.1383 31.3686 74.1383 32.9361Z" fill="#202038"/>
<path d="M83.5065 37.6138V28.2336H85.5453V35.8757H90.3933V37.6147L83.5065 37.6138Z" fill="#202038"/>
</svg>
