<svg width="56" height="56" viewBox="0 0 56 56" fill="none" xmlns="http://www.w3.org/2000/svg">
<rect x="2" y="2" width="52" height="52" rx="26" fill="url(#paint0_radial_749_3625)"/>
<rect x="2" y="2" width="52" height="52" rx="26" fill="url(#paint1_radial_749_3625)"/>
<rect x="2" y="2" width="52" height="52" rx="26" stroke="#E4F1FE" stroke-width="4"/>
<path d="M28.0037 16.1958C31.8515 16.1958 32.3031 16.2129 33.8239 16.2815C35.2304 16.3444 35.9908 16.5788 36.4996 16.7789C37.1743 17.0419 37.6545 17.3507 38.1577 17.8538C38.6608 18.3569 38.9752 18.8372 39.2325 19.5118C39.4269 20.0206 39.667 20.781 39.7299 22.1875C39.7985 23.7083 39.8157 24.16 39.8157 28.0077C39.8157 31.8555 39.7985 32.3071 39.7299 33.8279C39.667 35.2344 39.4326 35.9948 39.2325 36.5036C38.9695 37.1783 38.6608 37.6585 38.1577 38.1617C37.6545 38.6648 37.1743 38.9792 36.4996 39.2365C35.9908 39.4309 35.2304 39.671 33.8239 39.7339C32.3031 39.8025 31.8515 39.8197 28.0037 39.8197C24.156 39.8197 23.7043 39.8025 22.1835 39.7339C20.777 39.671 20.0166 39.4366 19.5078 39.2365C18.8331 38.9735 18.3529 38.6648 17.8498 38.1617C17.3466 37.6585 17.0322 37.1783 16.7749 36.5036C16.5805 35.9948 16.3404 35.2344 16.2775 33.8279C16.2089 32.3071 16.1917 31.8555 16.1917 28.0077C16.1917 24.16 16.2089 23.7083 16.2775 22.1875C16.3404 20.781 16.5748 20.0206 16.7749 19.5118C17.0379 18.8372 17.3466 18.3569 17.8498 17.8538C18.3529 17.3507 18.8331 17.0362 19.5078 16.7789C20.0166 16.5845 20.777 16.3444 22.1835 16.2815C23.7043 16.2072 24.1617 16.1958 28.0037 16.1958ZM28.0037 13.6001C24.0931 13.6001 23.6014 13.6172 22.0634 13.6859C20.5312 13.7545 19.4849 14.0003 18.5702 14.3548C17.6211 14.7207 16.8207 15.2181 16.0202 16.0185C15.2198 16.8189 14.7281 17.6251 14.3565 18.5684C14.002 19.4832 13.7562 20.5295 13.6876 22.0674C13.619 23.5997 13.6018 24.0914 13.6018 28.002C13.6018 31.9126 13.619 32.4043 13.6876 33.9423C13.7562 35.4745 14.002 36.5208 14.3565 37.4413C14.7224 38.3904 15.2198 39.1908 16.0202 39.9912C16.8207 40.7916 17.6268 41.2833 18.5702 41.6549C19.4849 42.0094 20.5312 42.2553 22.0691 42.3239C23.6071 42.3925 24.0931 42.4096 28.0094 42.4096C31.9258 42.4096 32.4118 42.3925 33.9497 42.3239C35.482 42.2553 36.5282 42.0094 37.4487 41.6549C38.3978 41.289 39.1982 40.7916 39.9986 39.9912C40.7991 39.1908 41.2908 38.3846 41.6624 37.4413C42.0169 36.5265 42.2627 35.4802 42.3313 33.9423C42.3999 32.4043 42.4171 31.9184 42.4171 28.002C42.4171 24.0856 42.3999 23.5997 42.3313 22.0617C42.2627 20.5295 42.0169 19.4832 41.6624 18.5627C41.2965 17.6136 40.7991 16.8132 39.9986 16.0128C39.1982 15.2124 38.3921 14.7207 37.4487 14.3491C36.534 13.9946 35.4877 13.7487 33.9497 13.6801C32.4061 13.6172 31.9144 13.6001 28.0037 13.6001Z" fill="white"/>
<path d="M28.0039 20.6094C23.9218 20.6094 20.6057 23.9197 20.6057 28.0076C20.6057 32.0954 23.916 35.4058 28.0039 35.4058C32.0918 35.4058 35.4021 32.0954 35.4021 28.0076C35.4021 23.9197 32.0918 20.6094 28.0039 20.6094ZM28.0039 32.8044C25.3511 32.8044 23.2014 30.6547 23.2014 28.0019C23.2014 25.349 25.3511 23.1993 28.0039 23.1993C30.6567 23.1993 32.8065 25.349 32.8065 28.0019C32.8065 30.6547 30.6567 32.8044 28.0039 32.8044Z" fill="white"/>
<path d="M35.6937 22.0387C36.6473 22.0387 37.4203 21.2657 37.4203 20.3121C37.4203 19.3585 36.6473 18.5854 35.6937 18.5854C34.7401 18.5854 33.967 19.3585 33.967 20.3121C33.967 21.2657 34.7401 22.0387 35.6937 22.0387Z" fill="white"/>
<defs>
<radialGradient id="paint0_radial_749_3625" cx="0" cy="0" r="1" gradientUnits="userSpaceOnUse" gradientTransform="translate(16.7501 55.697) rotate(-90) scale(47.5715 44.2453)">
<stop stop-color="#FFDD55"/>
<stop offset="0.1" stop-color="#FFDD55"/>
<stop offset="0.5" stop-color="#FF543E"/>
<stop offset="1" stop-color="#C837AB"/>
</radialGradient>
<radialGradient id="paint1_radial_749_3625" cx="0" cy="0" r="1" gradientTransform="matrix(4.17378 20.851 -85.947 17.2138 -4.04025 7.45784)" gradientUnits="userSpaceOnUse">
<stop stop-color="#3771C8"/>
<stop offset="0.128" stop-color="#3771C8"/>
<stop offset="1" stop-color="#6600FF" stop-opacity="0"/>
</radialGradient>
</defs>
</svg>
