<svg width="56" height="56" viewBox="0 0 56 56" fill="none" xmlns="http://www.w3.org/2000/svg">
<rect x="2" y="2" width="52" height="52" rx="26" fill="#0A66C2"/>
<rect x="2" y="2" width="52" height="52" rx="26" stroke="#E4F1FE" stroke-width="4"/>
<path d="M39.2512 14.8H16.7489C16.232 14.8 15.7363 15.0054 15.3708 15.3708C15.0054 15.7363 14.8 16.232 14.8 16.7489V39.2512C14.8 39.7681 15.0054 40.2638 15.3708 40.6293C15.7363 40.9947 16.232 41.2001 16.7489 41.2001H39.2512C39.7681 41.2001 40.2638 40.9947 40.6293 40.6293C40.9947 40.2638 41.2001 39.7681 41.2001 39.2512V16.7489C41.2001 16.232 40.9947 15.7363 40.6293 15.3708C40.2638 15.0054 39.7681 14.8 39.2512 14.8ZM22.6687 37.2895H18.6995V24.6817H22.6687V37.2895ZM20.6814 22.9345C20.2311 22.932 19.7918 22.7962 19.4187 22.5441C19.0456 22.2921 18.7555 21.9352 18.585 21.5185C18.4146 21.1018 18.3714 20.6439 18.4609 20.2026C18.5504 19.7614 18.7686 19.3566 19.088 19.0392C19.4074 18.7219 19.8136 18.5062 20.2555 18.4196C20.6973 18.3329 21.1549 18.379 21.5705 18.5521C21.9861 18.7253 22.3411 19.0176 22.5908 19.3923C22.8404 19.7671 22.9734 20.2073 22.973 20.6575C22.9773 20.959 22.9208 21.2582 22.807 21.5373C22.6931 21.8165 22.5242 22.0698 22.3104 22.2823C22.0965 22.4948 21.8421 22.6621 21.5622 22.7741C21.2823 22.8862 20.9828 22.9407 20.6814 22.9345ZM37.2987 37.3005H33.3314V30.4127C33.3314 28.3814 32.4679 27.7544 31.3532 27.7544C30.1762 27.7544 29.0212 28.6417 29.0212 30.4641V37.3005H25.052V24.6909H28.8691V26.4381H28.9204C29.3036 25.6625 30.6456 24.3371 32.6934 24.3371C34.9081 24.3371 37.3005 25.6516 37.3005 29.5015L37.2987 37.3005Z" fill="white"/>
</svg>
