<svg width="56" height="56" viewBox="0 0 56 56" fill="none" xmlns="http://www.w3.org/2000/svg">
<rect x="2" y="2" width="52" height="52" rx="26" fill="#FF0000"/>
<rect x="2" y="2" width="52" height="52" rx="26" stroke="#E4F1FE" stroke-width="4"/>
<path d="M41.9765 21.1294C41.6471 19.9059 40.6824 18.9412 39.4588 18.6118C37.2235 18 28.2824 18 28.2824 18C28.2824 18 19.3412 18 17.1059 18.5882C15.9059 18.9176 14.9176 19.9059 14.5882 21.1294C14 23.3647 14 28 14 28C14 28 14 32.6588 14.5882 34.8706C14.9176 36.0941 15.8824 37.0588 17.1059 37.3882C19.3647 38 28.2824 38 28.2824 38C28.2824 38 37.2235 38 39.4588 37.4118C40.6824 37.0824 41.6471 36.1176 41.9765 34.8941C42.5647 32.6588 42.5647 28.0235 42.5647 28.0235C42.5647 28.0235 42.5882 23.3647 41.9765 21.1294Z" fill="white"/>
<path d="M25.4353 32.2822L32.8706 27.9999L25.4353 23.7175V32.2822Z" fill="#FF0000"/>
</svg>
